Patient4_TMGait_0pt8_01_left_27_GRF.mot
version=1
nRows=58
nColumns=19
inDegrees=no
endheader
time	F1x	F1y	F1z	M1x	M1y	M1z	F2x	F2y	F2z	M2x	M2y	M2z	EC1x	EC1y	EC1z	EC2x	EC2y	EC2z
29.63	-5.1402	14.3555	10.2698	-5.706	-10.9661	13.6099	-15.3886	739.2954	-83.3749	304.7511	93.7499	819.8438	-0.0592	0.0182	-0.0073	-0.0462	0.0165	0.9585
29.6412	-3.7413	10.9485	7.0686	-4.3289	-7.6362	10.8702	-12.1413	741.1311	-78.7681	303.415	88.9049	816.4775	-0.0592	0.0182	-0.0073	-0.0462	0.0165	0.9585
29.6524	-2.498	8.0806	4.3427	-3.1498	-4.7906	8.506	-8.5743	742.2274	-74.644	302.1161	84.1098	811.6689	-0.0592	0.0182	-0.0073	-0.0462	0.0165	0.9585
29.6636	-1.5019	5.9272	2.2491	-2.2489	-2.5963	6.6837	-4.896	742.9278	-71.2621	301.0823	79.6495	806.0743	-0.0592	0.0182	-0.0073	-0.0462	0.0165	0.9585
29.6749	-0.79881	4.489	0.79169	-1.6309	-1.067	5.4537	-1.2685	743.7932	-68.6897	300.514	75.6831	800.5182	-0.0592	0.0182	-0.0073	-0.0462	0.0165	0.9585
29.6861	-0.35466	3.6716	-0.12007	-1.2611	-0.11062	4.7478	2.1444	745.3179	-66.8567	300.5282	72.2719	795.7302	-0.0592	0.0182	-0.0073	-0.0462	0.0165	0.9585
29.6973	-0.13744	3.3143	-0.61607	-1.0776	0.40492	4.4476	5.2908	747.7761	-65.6766	301.1313	69.432	792.1275	-0.0592	0.0182	-0.0073	-0.0462	0.0165	0.9585
29.7085	-0.091338	3.2491	-0.81545	-1.0118	0.60335	4.4016	8.1551	751.1674	-65.0249	302.2207	67.1144	789.7875	-0.0592	0.0182	-0.0073	-0.0462	0.0165	0.9585
29.7197	-0.17589	3.2786	-0.84041	-0.99031	0.60564	4.3972	10.8206	755.1732	-64.794	303.5904	65.2322	788.3965	-0.0592	0.0182	-0.0073	-0.0462	0.0165	0.9585
29.7309	-0.35474	3.2033	-0.76491	-0.94123	0.48676	4.22	13.385	759.3028	-64.8709	304.981	63.671	787.446	-0.0592	0.0182	-0.0073	-0.0462	0.0165	0.9585
29.7421	-0.58234	2.8122	-0.66	-0.79444	0.32607	3.6341	15.9612	762.8811	-65.1557	306.0949	62.312	786.199	-0.0592	0.0182	-0.0073	-0.0462	0.0165	0.9585
29.7534	-0.84249	1.9167	-0.56144	-0.48644	0.16474	2.4345	18.6156	765.3286	-65.5731	306.6857	61.0651	784.0314	-0.0592	0.0182	-0.0073	-0.0462	0.0165	0.9585
29.7646	-1.065	0.35881	-0.50345	0.035444	0.058751	0.41824	21.3822	766.1666	-66.0665	306.573	59.865	780.3925	-0.0592	0.0182	-0.0073	-0.0462	0.0165	0.9585
29.7758	-1.1983	-1.9252	-0.5116	0.79917	0.056548	-2.506	24.1909	765.1299	-66.5935	305.6678	58.6873	774.9796	-0.0592	0.0182	-0.0073	-0.0462	0.0165	0.9585
29.787	-1.1021	-4.9025	-0.59712	1.7926	0.22068	-6.3272	26.9891	762.0997	-67.1257	303.9456	57.5288	767.6287	-0.0592	0.0182	-0.0073	-0.0462	0.0165	0.9585
29.7982	-0.65206	-8.3007	-0.76783	2.9226	0.60967	-10.6858	29.6539	757.082	-67.6379	301.4334	56.4126	758.3163	-0.0592	0.0182	-0.0073	-0.0462	0.0165	0.9585
29.8094	0.36823	-11.5792	-1.0019	3.9979	1.2718	-14.9025	32.1558	750.2381	-68.0988	298.2197	55.3338	747.1677	-0.0592	0.0182	-0.0073	-0.0462	0.0165	0.9585
29.8206	2.1341	-13.7086	-1.2725	4.6675	2.2329	-17.6548	34.4642	741.8196	-68.5095	294.4253	54.2981	734.4303	-0.0592	0.0182	-0.0073	-0.0462	0.0165	0.9585
29.8319	4.8626	-13.1444	-1.508	4.4031	3.4731	-17.0075	36.6608	732.1302	-68.8493	290.1849	53.2579	720.3876	-0.0592	0.0182	-0.0073	-0.0462	0.0165	0.9585
29.8431	8.6093	-7.7063	-1.6172	2.4679	4.8967	-10.1816	38.8481	721.3983	-69.1122	285.5956	52.1663	705.279	-0.0592	0.0182	-0.0073	-0.0462	0.0165	0.9585
29.8543	13.3195	5.3544	-1.4567	-2.0632	6.2974	6.2954	41.1779	709.5792	-69.248	280.646	50.9244	689.0906	-0.0592	0.0182	-0.0073	-0.0462	0.0165	0.9585
29.8655	18.5348	29.1704	-0.84375	-10.2341	7.2839	36.4274	43.7722	696.2675	-69.1713	275.1713	49.4077	671.5131	-0.0592	0.0182	-0.0073	-0.0462	0.0165	0.9585
29.8767	23.3667	66.7084	0.45741	-23.0286	7.2438	83.9851	46.6769	680.5818	-68.7584	268.8207	47.4845	651.804	-0.0592	0.0182	-0.0073	-0.0462	0.0165	0.9585
29.8879	26.1884	119.9218	2.7076	-41.0702	5.287	151.5075	49.8308	661.3082	-67.7989	261.1069	44.9854	628.9293	-0.0592	0.0182	-0.0073	-0.0462	0.0165	0.9585
29.8991	24.6051	188.3572	6.1542	-64.1593	0.28324	238.4531	53.0074	637.0242	-66.0795	251.4602	41.804	601.6903	-0.0592	0.0182	-0.0073	-0.0462	0.0165	0.9585
29.9104	16.3134	268.4833	11.1139	-91.0437	-8.9026	340.4431	55.8557	606.3086	-63.3756	239.3152	37.8758	568.9103	-0.0592	0.0182	-0.0073	-0.0462	0.0165	0.9585
29.9216	1.625	354.4693	17.8453	-119.6881	-22.4392	450.0614	57.9172	568.0711	-59.5715	224.2313	33.2798	529.718	-0.0592	0.0182	-0.0073	-0.0462	0.0165	0.9585
29.9328	-16.5526	438.9442	26.4728	-147.5713	-39.4225	557.6395	58.7186	521.7798	-54.6806	205.9927	28.2192	483.7325	-0.0592	0.0182	-0.0073	-0.0462	0.0165	0.9585
29.944	-35.1661	515.8477	36.7192	-172.6916	-58.3632	654.9312	57.833	467.6869	-48.904	184.6914	23.0485	431.2971	-0.0592	0.0182	-0.0073	-0.0462	0.0165	0.9585
29.9552	-52.1056	583.7911	47.3841	-194.6319	-77.1072	739.743	54.9873	407.0417	-42.5058	160.8036	18.1235	373.617	-0.0592	0.0182	-0.0073	-0.0462	0.0165	0.9585
29.9664	-65.9147	643.3333	57.4281	-213.6669	-93.8516	812.6438	50.0893	342.0429	-35.8071	135.1841	13.7655	312.7066	-0.0592	0.0182	-0.0073	-0.0462	0.0165	0.9585
29.9776	-75.9681	694.9498	66.0816	-230.0354	-107.4702	874.252	43.3903	275.7395	-29.1727	109.0227	10.2022	251.2787	-0.0592	0.0182	-0.0073	-0.0462	0.0165	0.9585
29.9889	-82.1614	738.1243	73.1111	-243.6273	-117.6522	924.1172	35.3683	211.6584	-22.8718	83.7118	7.4665	192.4228	-0.0592	0.0182	-0.0073	-0.0462	0.0165	0.9585
30.0001	-84.6146	772.0736	78.466	-254.232	-124.4165	961.3962	26.8857	153.2916	-17.1667	60.6335	5.46	139.1321	-0.0592	0.0182	-0.0073	-0.0462	0.0165	0.9585
30.0113	-83.6362	796.4917	82.203	-261.7776	-127.9821	985.9079	18.8375	103.4028	-12.1753	40.8904	3.9408	93.7666	-0.0592	0.0182	-0.0073	-0.0462	0.0165	0.9585
30.0225	-79.6959	811.6021	84.4494	-266.3612	-128.7084	998.2069	11.9635	63.4874	-7.9953	25.0913	2.729	57.5436	-0.0592	0.0182	-0.0073	-0.0462	0.0165	0.9585
30.0337	-73.5184	817.998	85.3614	-268.1912	-127.073	999.3346	6.5593	33.8327	-4.6841	13.3539	1.7623	30.6967	-0.0592	0.0182	-0.0073	-0.0462	0.0165	0.9585
30.0449	-65.8873	816.4217	85.2332	-267.5232	-123.7176	990.5514	2.665	13.6097	-2.2719	5.3556	1.0522	12.4309	-0.0592	0.0182	-0.0073	-0.0462	0.0165	0.9585
30.0561	-57.5969	808.0046	84.3042	-264.738	-119.2193	973.5013	0.10557	1.3142	-0.70383	0.49098	0.60833	1.3936	-0.0592	0.0182	-0.0073	-0.0462	0.0165	0.9585
30.0674	-49.2535	794.2938	82.7942	-260.3573	-114.0534	950.256	-1.3609	-5.0138	0.20428	-2.009	0.35132	-4.2244	-0.0592	0.0182	-0.0073	-0.0462	0.0165	0.9585
30.0786	-41.2176	777.2905	80.7967	-255.0499	-108.4665	923.3352	-2.0508	-7.2114	0.62312	-2.8789	0.24229	-6.0791	-0.0592	0.0182	-0.0073	-0.0462	0.0165	0.9585
30.0898	-33.7185	759.0981	78.3633	-249.5154	-102.5964	895.2794	-2.2089	-6.893	0.72473	-2.7537	0.21915	-5.6612	-0.0592	0.0182	-0.0073	-0.0462	0.0165	0.9585
30.101	-26.9032	741.6113	75.5633	-244.3656	-96.5634	868.3431	-2.0724	-5.2529	0.64362	-2.1097	0.24798	-4.0327	-0.0592	0.0182	-0.0073	-0.0462	0.0165	0.9585
30.1122	-20.9097	726.2461	72.5316	-240.0368	-90.5466	844.1801	-1.7689	-3.1508	0.47563	-1.2836	0.29859	-1.9958	-0.0592	0.0182	-0.0073	-0.0462	0.0165	0.9585
30.1234	-15.8548	713.9485	69.497	-236.7888	-84.8219	823.8705	-1.4366	-1.0889	0.29642	-0.47638	0.35238	0.0055074	-0.0592	0.0182	-0.0073	-0.0462	0.0165	0.9585
30.1346	-11.7247	705.2342	66.7089	-234.7325	-79.654	807.963	-1.111	0.64723	0.12763	0.20273	0.40391	1.6871	-0.0592	0.0182	-0.0073	-0.0462	0.0165	0.9585
30.1459	-8.4358	700.2549	64.3803	-233.8648	-75.249	796.558	-0.84896	1.9755	-0.010313	0.72013	0.44836	2.977	-0.0592	0.0182	-0.0073	-0.0462	0.0165	0.9585
30.1571	-5.8294	698.8915	62.6395	-234.1039	-71.6963	789.4337	-0.6352	2.8827	-0.11698	1.0759	0.4768	3.8412	-0.0592	0.0182	-0.0073	-0.0462	0.0165	0.9585
30.1683	-3.693	700.8143	61.5077	-235.3134	-68.961	786.1415	-0.4813	3.4359	-0.19796	1.297	0.49473	4.355	-0.0592	0.0182	-0.0073	-0.0462	0.0165	0.9585
30.1795	-1.826	705.537	60.9607	-237.3194	-66.9567	786.0566	-0.3658	3.7025	-0.24401	1.4127	0.48663	4.5591	-0.0592	0.0182	-0.0073	-0.0462	0.0165	0.9585
30.1907	-0.025027	712.4128	60.8995	-239.9064	-65.5248	788.3962	-0.29333	3.7837	-0.27271	1.4593	0.47159	4.5637	-0.0592	0.0182	-0.0073	-0.0462	0.0165	0.9585
30.2019	1.8623	720.6402	61.2344	-242.8149	-64.521	792.2213	-0.24993	3.757	-0.28636	1.4662	0.45023	4.4605	-0.0592	0.0182	-0.0073	-0.0462	0.0165	0.9585
30.2131	3.9349	729.3385	61.8368	-245.7671	-63.7754	796.5284	-0.23983	3.7028	-0.2874	1.4598	0.42628	4.3478	-0.0592	0.0182	-0.0073	-0.0462	0.0165	0.9585
30.2244	6.2585	737.6194	62.5867	-248.4844	-63.1379	800.35	-0.24877	3.6704	-0.27977	1.4569	0.40466	4.2824	-0.0592	0.0182	-0.0073	-0.0462	0.0165	0.9585
30.2356	8.8306	744.6896	63.3633	-250.719	-62.4735	802.8291	-0.27815	3.6826	-0.26255	1.4646	0.38683	4.2852	-0.0592	0.0182	-0.0073	-0.0462	0.0165	0.9585
30.2468	11.606	749.9049	64.059	-252.2704	-61.6793	803.3054	-0.32513	3.7557	-0.24652	1.4852	0.38464	4.3732	-0.0592	0.0182	-0.0073	-0.0462	0.0165	0.9585
30.258	14.5078	752.8162	64.6244	-253	-60.7229	801.3409	-0.39884	3.8583	-0.23829	1.5082	0.40602	4.5133	-0.0592	0.0182	-0.0073	-0.0462	0.0165	0.9585
30.2692	17.4396	753.2405	65.0274	-252.8564	-59.6095	796.7788	-0.4965	3.9505	-0.25179	1.5185	0.46443	4.6552	-0.0592	0.0182	-0.0073	-0.0462	0.0165	0.9585
